<svg xmlns="http://www.w3.org/2000/svg" viewBox="0 0 400 300" width="400" height="300">
  <!-- Hintergrund -->
  <rect width="100%" height="100%" fill="#87CEEB" />

  <!-- Himmel -->
  <rect x="0" y="0" width="100%" height="30%" fill="#87CEEB" />

  <!-- Sonne -->
  <circle cx="350" cy="50" r="20" fill="#FFD700" />

  <!-- Stadt -->
  <rect x="50" y="180" width="300" height="100" fill="#8B4513" />

  <!-- Straße -->
  <rect x="0" y="220" width="100%" height="80" fill="#A9A9A9" />

  <!-- Burg -->
  <rect x="150" y="120" width="100" height="80" fill="#2F4F4F" />
  <polygon points="150,120 200,60 250,120" fill="#8B4513" />

  <!-- Fenster Burg -->
  <circle cx="170" cy="140" r="5" fill="#FFFF00" />
  <circle cx="190" cy="140" r="5" fill="#FFFF00" />
  <circle cx="210" cy="140" r="5" fill="#FFFF00" />
  <circle cx="230" cy="140" r="5" fill="#FFFF00" />

  <!-- Tür Burg -->
  <rect x="195" y="160" width="10" height="20" fill="#8B4513" />

  <!-- Dächer Stadt -->
  <polygon points="50,180 150,120 250,180" fill="#A52A2A" />
  <polygon points="80,180 150,130 220,180" fill="#A52A2A" />
  <polygon points="110,180 150,140 190,180" fill="#A52A2A" />
  <polygon points="140,180 150,150 160,180" fill="#A52A2A" />
  <polygon points="170,180 150,160 130,180" fill="#A52A2A" />
  <polygon points="200,180 150,170 100,180" fill="#A52A2A" />
  <polygon points="230,180 150,180 50,180" fill="#A52A2A" />

  <!-- Fenster Stadt -->
  <circle cx="70" cy="200" r="3" fill="#FFFF00" />
  <circle cx="100" cy="200" r="3" fill="#FFFF00" />
  <circle cx="130" cy="200" r="3" fill="#FFFF00" />
  <circle cx="160" cy="200" r="3" fill="#FFFF00" />
  <circle cx="190" cy="200" r="3" fill="#FFFF00" />
  <circle cx="220" cy="200" r="3" fill="#FFFF00" />
  <circle cx="250" cy="200" r="3" fill="#FFFF00" />

</svg>
